<?xml version="1.0" standalone="no"?>
<svg viewBox="0 0 200 200" xmlns="http://www.w3.org/2000/svg">
  <path fill="#45269F" d="M42.3,-73.1C55.1,-65.8,65.9,-55.1,71.5,-42.3C77,-29.6,77.2,-14.8,77.3,0.1C77.4,14.9,77.5,29.8,71.6,42C65.7,54.1,53.8,63.3,40.9,68.5C28,73.7,14,74.8,1.7,71.8C-10.5,68.8,-21,61.7,-34.1,56.6C-47.1,51.5,-62.7,48.4,-70.6,39.3C-78.5,30.2,-78.7,15.1,-75.5,1.9C-72.2,-11.4,-65.6,-22.7,-60.3,-36.3C-55.1,-49.9,-51.1,-65.8,-41.2,-74.8C-31.4,-83.8,-15.7,-86,-0.5,-85.1C14.7,-84.3,29.5,-80.4,42.3,-73.1Z" transform="translate(100 100)" />
</svg>
